
<svg xmlns="http://www.w3.org/2000/svg" version="1.1" xmlns:xlink="http://www.w3.org/1999/xlink" preserveAspectRatio="none" x="0px" y="0px" width="400px" height="400px" viewBox="0 0 400 400">
<defs>
<g id="Layer0_0_FILL">
<path fill="#333333" stroke="none" d="
M 288.6 33.85
Q 286.4 31.1 283.9 28.6 267.45 12.15 244.2 12.15
L 138.05 12.15
Q 114.8 12.15 98.3 28.6 81.85 45.1 81.85 68.35
L 81.85 348.9
Q 81.85 352.75 82.35 356.4
L 100.75 376.8 100.75 84.1
Q 100.75 60.8 117.15 44.3 133.65 27.9 156.95 27.9
L 263.05 27.9
Q 277.05 27.9 288.6 33.85 Z"/>

<path fill="#666666" stroke="none" d="
M 302.75 44.3
Q 296.25 37.8 288.6 33.85 277.05 27.9 263.05 27.9
L 156.95 27.9
Q 133.65 27.9 117.15 44.3 100.75 60.8 100.75 84.1
L 100.75 376.8
Q 210 393.15 319.25 376.95
L 319.25 84.1
Q 319.25 60.8 302.75 44.3 Z"/>
</g>
</defs>

<g transform="matrix( 1, 0, 0, 1, 0,0) ">
<use xlink:href="#Layer0_0_FILL"/>
</g>
</svg>
